# xmcd
#
# Track frame offsets: 
#        150
#        15533
#        32185
#        46431
#        65872
#        82706
#        96679
#        112943
#        130978
#        148954
#        161905
#
# Disc length: 2365 seconds
#
# Revision: 2
# Processed by: cddbd v1.5.1PL0 Copyright (c) Steve Scherf et al.
# Submitted via: ExactAudioCopy v0.95a5
#
DISCID=9e093b0b
DTITLE=Liane Foly - La chanteuse de bal
DYEAR=2004
DGENRE=Jazz
TTITLE0=Badaboum
TTITLE1=Démaquillée
TTITLE2=Viens
TTITLE3=La chanteuse de bal
TTITLE4=Déracinée
TTITLE5=Pas de doute
TTITLE6=Deux centres du monde
TTITLE7=Ma requête d'amour
TTITLE8=Docteur blues
TTITLE9=Sa double vie
TTITLE10=Une étoile dort
EXTD=
EXTT0=
EXTT1=
EXTT2=
EXTT3=(Jean-Jacques Goldman/Jean-Jacques Goldman)
EXTT4=
EXTT5=
EXTT6=(Jean-Jacques Goldman/Jean-Jacques Goldman)
EXTT7=
EXTT8=
EXTT9=
EXTT10=
PLAYORDER=
